<?xml version="1.0" standalone="no"?>
<!DOCTYPE svg PUBLIC "-//W3C//DTD SVG 20010904//EN"
 "http://www.w3.org/TR/2001/REC-SVG-20010904/DTD/svg10.dtd">
<svg version="1.0" xmlns="http://www.w3.org/2000/svg"
 width="860.000000pt" height="984.000000pt" viewBox="0 0 860.000000 984.000000"
 preserveAspectRatio="xMidYMid meet">

<g transform="translate(0.000000,984.000000) scale(0.100000,-0.100000)"
fill="#000000" stroke="none">
<path d="M4175 9418 c-16 -6 -42 -19 -57 -29 -14 -11 -30 -19 -35 -19 -5 0
-842 -831 -1860 -1847 -2097 -2094 -1907 -1888 -1908 -2068 0 -93 2 -105 33
-167 79 -161 250 -258 405 -230 102 19 160 54 274 165 58 56 723 720 1477
1475 755 754 1378 1372 1384 1372 7 0 13 -6 13 -12 1 -7 2 -1599 3 -3538 1
-3447 1 -3526 20 -3582 36 -107 134 -207 244 -248 38 -14 77 -20 138 -20 76 0
94 4 152 32 106 50 184 141 221 257 8 24 11 1057 11 3573 0 3322 1 3539 17
3545 12 5 27 -5 53 -36 19 -24 674 -683 1455 -1466 978 -980 1438 -1434 1478
-1459 31 -20 87 -44 123 -53 57 -14 75 -15 132 -3 198 39 342 203 342 391 0
31 -5 71 -11 90 -38 121 27 53 -1908 1986 -2092 2091 -1889 1904 -2068 1902
-54 0 -111 -5 -128 -11z"/>
</g>
</svg>
