<svg width="21" height="21" viewBox="0 0 21 21" fill="none" xmlns="http://www.w3.org/2000/svg">
<path d="M19.25 10.5C19.25 14.6248 19.25 16.6872 17.9686 17.9686C16.6872 19.25 14.6248 19.25 10.5 19.25C6.37521 19.25 4.31281 19.25 3.0314 17.9686C1.75 16.6872 1.75 14.6248 1.75 10.5C1.75 6.37521 1.75 4.31281 3.0314 3.03141C4.31281 1.75 6.37521 1.75 10.5 1.75C14.6248 1.75 16.6872 1.75 17.9686 3.03141C19.25 4.31281 19.25 6.37521 19.25 10.5Z" stroke="#1C274C" stroke-width="1.5"/>
<path d="M5.6875 12.6873H12.2836C13.9564 12.6873 15.3125 11.3313 15.3125 9.65848C15.3125 7.9857 13.9564 6.62964 12.2837 6.62964H8.3125M5.6875 12.6873L7.65625 14.5046M5.6875 12.6873L7.65625 10.87" stroke="#1C274C" stroke-width="1.5" stroke-linecap="round" stroke-linejoin="round"/>
</svg>
