<svg width="21" height="21" viewBox="0 0 21 21" fill="none" xmlns="http://www.w3.org/2000/svg">
<path d="M11.4508 18.7142L12.0962 19.0963L12.0962 19.0963L11.4508 18.7142ZM11.9252 17.9129L11.2797 17.5308L11.2797 17.5308L11.9252 17.9129ZM9.07481 17.9129L8.42939 18.2949L8.42939 18.2949L9.07481 17.9129ZM9.54914 18.7142L10.1946 18.3322L10.1946 18.3322L9.54914 18.7142ZM2.08303 13.9242L2.77594 13.6372L2.77594 13.6372L2.08303 13.9242ZM6.81588 16.6175L6.80296 17.3674L6.80296 17.3674L6.81588 16.6175ZM4.45076 16.292L4.16375 16.9849L4.16375 16.9849L4.45076 16.292ZM18.917 13.9242L19.6099 14.2113L19.6099 14.2113L18.917 13.9242ZM14.1841 16.6175L14.1712 15.8676L14.1712 15.8676L14.1841 16.6175ZM16.5492 16.292L16.8363 16.9849L16.8363 16.9849L16.5492 16.292ZM17.1609 2.3947L16.7691 3.03418L16.7691 3.03418L17.1609 2.3947ZM18.6053 3.83907L19.2448 3.44719L19.2448 3.44719L18.6053 3.83907ZM3.83907 2.3947L3.44719 1.75522L3.44719 1.75522L3.83907 2.3947ZM2.3947 3.83907L1.75522 3.44719L1.75522 3.44719L2.3947 3.83907ZM8.22744 16.8086L8.60452 16.1603L8.60451 16.1603L8.22744 16.8086ZM11.4508 18.7142L12.0962 19.0963L12.5706 18.2949L11.9252 17.9129L11.2797 17.5308L10.8054 18.3322L11.4508 18.7142ZM9.07481 17.9129L8.42939 18.2949L8.90373 19.0963L9.54914 18.7142L10.1946 18.3322L9.72022 17.5308L9.07481 17.9129ZM11.4508 18.7142L10.8054 18.3322C10.673 18.5558 10.3269 18.5558 10.1946 18.3322L9.54914 18.7142L8.90373 19.0963C9.61691 20.3012 11.3831 20.3012 12.0962 19.0963L11.4508 18.7142ZM9.1875 1.75V2.5H11.8125V1.75V1H9.1875V1.75ZM19.25 9.1875H18.5V10.0625H19.25H20V9.1875H19.25ZM1.75 10.0625H2.5V9.1875H1.75H1V10.0625H1.75ZM1.75 10.0625H1C1 11.0715 0.999594 11.8658 1.04337 12.5074C1.0876 13.1557 1.17944 13.7026 1.39012 14.2113L2.08303 13.9242L2.77594 13.6372C2.65359 13.3418 2.57891 12.9772 2.53989 12.4053C2.50041 11.8266 2.5 11.092 2.5 10.0625H1.75ZM6.81588 16.6175L6.8288 15.8676C5.73028 15.8487 5.17087 15.7785 4.73777 15.5991L4.45076 16.292L4.16375 16.9849C4.88618 17.2841 5.7046 17.3485 6.80296 17.3674L6.81588 16.6175ZM2.08303 13.9242L1.39012 14.2113C1.91027 15.467 2.90798 16.4647 4.16375 16.9849L4.45076 16.292L4.73777 15.5991C3.84955 15.2311 3.14385 14.5255 2.77594 13.6372L2.08303 13.9242ZM19.25 10.0625H18.5C18.5 11.092 18.4996 11.8266 18.4601 12.4053C18.4211 12.9772 18.3464 13.3418 18.2241 13.6372L18.917 13.9242L19.6099 14.2113C19.8206 13.7026 19.9124 13.1557 19.9566 12.5074C20.0004 11.8658 20 11.0715 20 10.0625H19.25ZM14.1841 16.6175L14.197 17.3674C15.2954 17.3485 16.1138 17.2841 16.8363 16.9849L16.5492 16.292L16.2622 15.5991C15.8291 15.7785 15.2697 15.8487 14.1712 15.8676L14.1841 16.6175ZM18.917 13.9242L18.2241 13.6372C17.8561 14.5255 17.1505 15.2311 16.2622 15.5991L16.5492 16.292L16.8363 16.9849C18.092 16.4647 19.0897 15.467 19.6099 14.2113L18.917 13.9242ZM11.8125 1.75V2.5C13.2591 2.5 14.2915 2.50079 15.0953 2.57722C15.888 2.65259 16.3807 2.79618 16.7691 3.03418L17.1609 2.3947L17.5528 1.75522C16.8891 1.34852 16.1397 1.16976 15.2373 1.08395C14.346 0.999209 13.2301 1 11.8125 1V1.75ZM19.25 9.1875H20C20 7.7699 20.0008 6.65403 19.916 5.76272C19.8302 4.86025 19.6515 4.11087 19.2448 3.44719L18.6053 3.83907L17.9658 4.23094C18.2038 4.61932 18.3474 5.11203 18.4228 5.9047C18.4992 6.70853 18.5 7.74085 18.5 9.1875H19.25ZM17.1609 2.3947L16.7691 3.03418C17.2568 3.33308 17.6669 3.74318 17.9658 4.23094L18.6053 3.83907L19.2448 3.44719C18.8222 2.7576 18.2424 2.17781 17.5528 1.75522L17.1609 2.3947ZM9.1875 1.75V1C7.7699 1 6.65403 0.999209 5.76272 1.08395C4.86025 1.16976 4.11087 1.34852 3.44719 1.75522L3.83907 2.3947L4.23094 3.03418C4.61932 2.79618 5.11203 2.65259 5.9047 2.57722C6.70853 2.50079 7.74085 2.5 9.1875 2.5V1.75ZM1.75 9.1875H2.5C2.5 7.74085 2.50079 6.70853 2.57722 5.9047C2.65259 5.11203 2.79618 4.61932 3.03418 4.23094L2.3947 3.83907L1.75522 3.44719C1.34852 4.11087 1.16976 4.86025 1.08395 5.76272C0.999209 6.65403 1 7.7699 1 9.1875H1.75ZM3.83907 2.3947L3.44719 1.75522C2.7576 2.1778 2.1778 2.7576 1.75522 3.44719L2.3947 3.83907L3.03418 4.23094C3.33308 3.74318 3.74318 3.33308 4.23094 3.03418L3.83907 2.3947ZM9.07481 17.9129L9.72022 17.5308C9.54347 17.2322 9.38495 16.9628 9.23006 16.7503C9.06595 16.5252 8.8737 16.3169 8.60452 16.1603L8.22744 16.8086L7.85037 17.4569C7.87667 17.4722 7.92414 17.5052 8.01786 17.6338C8.1208 17.7751 8.23822 17.9719 8.42939 18.2949L9.07481 17.9129ZM6.81588 16.6175L6.80296 17.3674C7.18891 17.3741 7.42717 17.3789 7.60733 17.3989C7.77358 17.4173 7.82654 17.4431 7.85037 17.4569L8.22744 16.8086L8.60451 16.1603C8.33286 16.0023 8.05206 15.9389 7.77242 15.908C7.50668 15.8786 7.1869 15.8738 6.8288 15.8676L6.81588 16.6175ZM11.9252 17.9129L12.5706 18.2949C12.7617 17.9719 12.8792 17.7751 12.9821 17.6338C13.0758 17.5052 13.1233 17.4722 13.1496 17.4569L12.7725 16.8086L12.3955 16.1603C12.1263 16.3169 11.934 16.5252 11.7699 16.7503C11.615 16.9628 11.4565 17.2322 11.2797 17.5308L11.9252 17.9129ZM14.1841 16.6175L14.1712 15.8676C13.8131 15.8738 13.4933 15.8786 13.2275 15.908C12.9479 15.9389 12.6671 16.0023 12.3955 16.1603L12.7725 16.8086L13.1496 17.4569C13.1734 17.4431 13.2264 17.4173 13.3926 17.3989C13.5728 17.3789 13.8111 17.3741 14.197 17.3674L14.1841 16.6175Z" fill="#1C274C"/>
<path d="M7.875 9.625C7.875 10.1082 7.48325 10.5 7 10.5C6.51675 10.5 6.125 10.1082 6.125 9.625C6.125 9.14175 6.51675 8.75 7 8.75C7.48325 8.75 7.875 9.14175 7.875 9.625Z" fill="#1C274C"/>
<path d="M11.375 9.625C11.375 10.1082 10.9832 10.5 10.5 10.5C10.0168 10.5 9.625 10.1082 9.625 9.625C9.625 9.14175 10.0168 8.75 10.5 8.75C10.9832 8.75 11.375 9.14175 11.375 9.625Z" fill="#1C274C"/>
<path d="M14.875 9.625C14.875 10.1082 14.4832 10.5 14 10.5C13.5168 10.5 13.125 10.1082 13.125 9.625C13.125 9.14175 13.5168 8.75 14 8.75C14.4832 8.75 14.875 9.14175 14.875 9.625Z" fill="#1C274C"/>
</svg>
