<svg width="21" height="21" viewBox="0 0 21 21" fill="none" xmlns="http://www.w3.org/2000/svg">
<path fill-rule="evenodd" clip-rule="evenodd" d="M4.375 1.09375C4.73744 1.09375 5.03125 1.38756 5.03125 1.75V2.6995L6.40814 2.42413C7.97718 2.11032 9.60362 2.25964 11.0893 2.85391L11.2675 2.92519C12.5054 3.42036 13.8679 3.51283 15.1614 3.18946C16.2382 2.92026 17.2812 3.73467 17.2812 4.8446V11.2907C17.2812 12.1556 16.6926 12.9095 15.8536 13.1193L15.6659 13.1662C13.9837 13.5868 12.2118 13.4665 10.6018 12.8225C9.35257 12.3228 7.98492 12.1973 6.66554 12.4611L5.03125 12.788V19.25C5.03125 19.6124 4.73744 19.9062 4.375 19.9062C4.01256 19.9062 3.71875 19.6124 3.71875 19.25V1.75C3.71875 1.38756 4.01256 1.09375 4.375 1.09375ZM5.03125 11.4495L6.40814 11.1741C7.97718 10.8603 9.60362 11.0096 11.0893 11.6039C12.4431 12.1454 13.933 12.2465 15.3476 11.8929L15.5352 11.846C15.79 11.7823 15.9688 11.5534 15.9688 11.2907V4.8446C15.9688 4.58855 15.7281 4.40067 15.4797 4.46277C13.9186 4.85306 12.2741 4.74145 10.78 4.14381L10.6018 4.07254C9.35257 3.57283 7.98492 3.44726 6.66554 3.71114L5.03125 4.038V11.4495Z" fill="#1C274C"/>
</svg>
