<svg width="21" height="21" viewBox="0 0 21 21" fill="none" xmlns="http://www.w3.org/2000/svg">
<path d="M7.84152 16.547L7.3772 17.136L7.84152 16.547ZM10.5 4.81299L9.95963 5.33309C10.101 5.47999 10.2961 5.56299 10.5 5.56299C10.7039 5.56299 10.899 5.47999 11.0404 5.33309L10.5 4.81299ZM13.1585 16.547L13.6228 17.136L13.1585 16.547ZM7.84152 16.547L8.30583 15.958C6.97407 14.9081 5.5343 13.8948 4.3911 12.6075C3.27361 11.3492 2.5 9.88837 2.5 7.9949H1.75H1C1 10.3565 1.98489 12.157 3.26953 13.6035C4.52846 15.0211 6.13445 16.1563 7.3772 17.136L7.84152 16.547ZM1.75 7.9949H2.5C2.5 6.14797 3.54349 4.60399 4.96029 3.95637C6.32981 3.33036 8.1829 3.48713 9.95963 5.33309L10.5 4.81299L11.0404 4.29289C8.87974 2.04808 6.35783 1.66827 4.33669 2.59214C2.36283 3.4944 1 5.58677 1 7.9949H1.75ZM7.84152 16.547L7.3772 17.136C7.82455 17.4886 8.31074 17.8695 8.80492 18.1583C9.29886 18.4469 9.8721 18.6874 10.5 18.6874V17.9374V17.1874C10.2529 17.1874 9.95114 17.0908 9.56171 16.8632C9.17252 16.6358 8.76697 16.3215 8.30583 15.958L7.84152 16.547ZM13.1585 16.547L13.6228 17.136C14.8656 16.1563 16.4715 15.0211 17.7305 13.6035C19.0151 12.157 20 10.3565 20 7.9949H19.25H18.5C18.5 9.88837 17.7264 11.3492 16.6089 12.6075C15.4657 13.8948 14.0259 14.9081 12.6942 15.958L13.1585 16.547ZM19.25 7.9949H20C20 5.58677 18.6372 3.4944 16.6633 2.59214C14.6422 1.66827 12.1203 2.04808 9.95963 4.29289L10.5 4.81299L11.0404 5.33309C12.8171 3.48713 14.6702 3.33036 16.0397 3.95637C17.4565 4.60399 18.5 6.14797 18.5 7.9949H19.25ZM13.1585 16.547L12.6942 15.958C12.233 16.3215 11.8275 16.6358 11.4383 16.8632C11.0489 17.0908 10.7471 17.1874 10.5 17.1874V17.9374V18.6874C11.1279 18.6874 11.7011 18.4469 12.1951 18.1583C12.6893 17.8695 13.1755 17.4886 13.6228 17.136L13.1585 16.547Z" fill="#1C274C"/>
</svg>
