<svg width="21" height="21" viewBox="0 0 21 21" fill="none" xmlns="http://www.w3.org/2000/svg">
<path d="M7.875 10.5C7.875 11.7081 6.89562 12.6875 5.6875 12.6875C4.47938 12.6875 3.5 11.7081 3.5 10.5C3.5 9.29188 4.47938 8.3125 5.6875 8.3125C6.89562 8.3125 7.875 9.29188 7.875 10.5Z" stroke="#1C274C" stroke-width="1.5"/>
<path d="M12.25 5.6875L7.875 8.75" stroke="#1C274C" stroke-width="1.5" stroke-linecap="round"/>
<path d="M12.25 15.3125L7.875 12.25" stroke="#1C274C" stroke-width="1.5" stroke-linecap="round"/>
<path d="M16.625 16.1875C16.625 17.3956 15.6456 18.375 14.4375 18.375C13.2294 18.375 12.25 17.3956 12.25 16.1875C12.25 14.9794 13.2294 14 14.4375 14C15.6456 14 16.625 14.9794 16.625 16.1875Z" stroke="#1C274C" stroke-width="1.5"/>
<path d="M16.625 4.8125C16.625 6.02062 15.6456 7 14.4375 7C13.2294 7 12.25 6.02062 12.25 4.8125C12.25 3.60438 13.2294 2.625 14.4375 2.625C15.6456 2.625 16.625 3.60438 16.625 4.8125Z" stroke="#1C274C" stroke-width="1.5"/>
</svg>
