<svg width="21" height="21" viewBox="0 0 21 21" fill="none" xmlns="http://www.w3.org/2000/svg">
<path d="M2.625 9.38091L2.625 11.6882C2.625 13.6372 2.625 14.6118 3.09117 15.4252C3.55735 16.2387 4.41178 16.7552 6.12063 17.7882L7.1061 18.3839C8.54377 19.253 9.26261 19.6875 10.0625 19.6875C10.8624 19.6875 11.5812 19.253 13.0189 18.3839L14.0044 17.7882C15.7132 16.7552 16.5677 16.2387 17.0338 15.4252C17.5 14.6118 17.5 13.6372 17.5 11.6882L17.5 9.38091C17.5 5.98991 17.5 4.2944 16.4108 3.24095C15.3216 2.1875 13.5686 2.1875 10.0625 2.1875C6.55643 2.1875 4.80339 2.1875 3.7142 3.24095C2.625 4.2944 2.625 5.9899 2.625 9.38091Z" stroke="#1C274C" stroke-width="1.5" stroke-linecap="round"/>
</svg>
