<svg width="24" height="24" viewBox="0 0 24 24" fill="none" xmlns="http://www.w3.org/2000/svg">
<path fill-rule="evenodd" clip-rule="evenodd" d="M4 12.858L4 10.221C4 6.34561 4 4.40789 5.17157 3.20394C6.34315 2 8.22877 2 12 2C15.7712 2 17.6569 2 18.8284 3.20394C20 4.40789 20 6.34561 20 10.221L20 12.858C20 15.0854 20 16.1992 19.4986 17.1289C18.9971 18.0586 18.0781 18.6488 16.24 19.8294L15.18 20.5102C13.6336 21.5034 12.8604 22 12 22C11.1396 22 10.3664 21.5034 8.82001 20.5102L7.76001 19.8294C5.92191 18.6488 5.00286 18.0586 4.50143 17.1289C4 16.1992 4 15.0854 4 12.858Z" fill="#1C274C"/>
</svg>
