<svg width="27" height="27" viewBox="0 0 27 27" fill="none" xmlns="http://www.w3.org/2000/svg">
<path fill-rule="evenodd" clip-rule="evenodd" d="M8.1564 6.75C8.1564 3.79873 10.5489 1.40625 13.5002 1.40625C16.4514 1.40625 18.8439 3.79873 18.8439 6.75C18.8439 9.70127 16.4514 12.0938 13.5002 12.0938C10.5489 12.0938 8.1564 9.70127 8.1564 6.75ZM13.5002 3.09375C11.4809 3.09375 9.8439 4.73071 9.8439 6.75C9.8439 8.76929 11.4809 10.4062 13.5002 10.4062C15.5194 10.4062 17.1564 8.76929 17.1564 6.75C17.1564 4.73071 15.5194 3.09375 13.5002 3.09375Z" fill="#1C274C"/>
<path d="M20.2502 15.6562C20.7161 15.6562 21.0939 16.034 21.0939 16.5V17.1562H21.75C22.216 17.1562 22.5937 17.534 22.5937 18C22.5937 18.466 22.216 18.8438 21.75 18.8438H21.0939V19.5C21.0939 19.966 20.7161 20.3437 20.2502 20.3437C19.7842 20.3437 19.4064 19.966 19.4064 19.5V18.8438H18.75C18.284 18.8438 17.9062 18.466 17.9062 18C17.9062 17.534 18.284 17.1562 18.75 17.1562H19.4064V16.5C19.4064 16.034 19.7842 15.6562 20.2502 15.6562Z" fill="#1C274C"/>
<path fill-rule="evenodd" clip-rule="evenodd" d="M16.6216 14.077C15.6398 13.8848 14.5897 13.7812 13.5002 13.7812C10.8974 13.7812 8.49944 14.3729 6.72253 15.3724C4.97207 16.357 3.6564 17.8493 3.6564 19.6875L3.65633 19.8022C3.65506 21.1093 3.65346 22.7497 5.09236 23.9215C5.80052 24.4982 6.79119 24.9082 8.12964 25.1791C9.47182 25.4508 11.2212 25.5938 13.5002 25.5938C16.7268 25.5938 18.9113 25.3081 20.3847 24.7596C21.7109 24.2659 22.4971 23.5424 22.9168 22.6319C24.5169 21.7087 25.5939 19.9801 25.5939 18C25.5939 15.0487 23.2014 12.6562 20.2502 12.6562C18.8494 12.6562 17.5746 13.1952 16.6216 14.077ZM7.54985 16.8432C6.04295 17.6908 5.3439 18.7297 5.3439 19.6875C5.3439 21.1588 5.38926 21.987 6.15794 22.613C6.57478 22.9524 7.27161 23.2837 8.46442 23.5252C9.65348 23.7659 11.2791 23.9062 13.5002 23.9062C16.4004 23.9062 18.2702 23.6662 19.4748 23.2879C16.891 22.9124 14.9064 20.6879 14.9064 18C14.9064 17.1362 15.1114 16.3202 15.4753 15.5981C14.8434 15.5137 14.182 15.4688 13.5002 15.4688C11.1323 15.4688 9.0303 16.0104 7.54985 16.8432ZM16.5939 18C16.5939 15.9807 18.2309 14.3438 20.2502 14.3438C22.2694 14.3438 23.9064 15.9807 23.9064 18C23.9064 20.0193 22.2694 21.6562 20.2502 21.6562C18.2309 21.6562 16.5939 20.0193 16.5939 18Z" fill="#1C274C"/>
</svg>
