<svg width="1220" height="1220" viewBox="0 0 1220 1220" fill="none" xmlns="http://www.w3.org/2000/svg">
<path fill-rule="evenodd" clip-rule="evenodd" d="M1220 610C1220 946.894 946.894 1220 610 1220C273.106 1220 0 946.894 0 610C0 273.106 273.106 0 610 0C946.894 0 1220 273.106 1220 610ZM793 427C793 528.068 711.068 610 610 610C508.932 610 427 528.068 427 427C427 325.932 508.932 244 610 244C711.068 244 793 325.932 793 427ZM609.999 1128.5C718.826 1128.5 819.822 1094.97 903.222 1037.68C940.058 1012.38 955.8 964.18 934.384 924.957C889.987 843.645 798.504 793 609.996 793C421.491 793 330.008 843.644 285.611 924.953C264.194 964.176 279.935 1012.38 316.77 1037.68C400.171 1094.97 501.17 1128.5 609.999 1128.5Z" fill="white"/>
</svg>
