<svg width="130" height="130" viewBox="0 0 130 130" fill="none" xmlns="http://www.w3.org/2000/svg">
<path fill-rule="evenodd" clip-rule="evenodd" d="M130 65C130 100.899 100.899 130 65 130C29.1015 130 0 100.899 0 65C0 29.1015 29.1015 0 65 0C100.899 0 130 29.1015 130 65ZM84.5 45.5C84.5 56.2696 75.7696 65 65 65C54.2304 65 45.5 56.2696 45.5 45.5C45.5 34.7304 54.2304 26 65 26C75.7696 26 84.5 34.7304 84.5 45.5ZM64.9999 120.25C76.5962 120.25 87.3581 116.677 96.245 110.573C100.17 107.877 101.847 102.741 99.5655 98.561C94.8347 89.8966 85.0865 84.5 64.9996 84.5C44.913 84.5 35.1648 89.8965 30.4339 98.5606C28.1518 102.74 29.8292 107.876 33.7542 110.572C42.6412 116.677 53.4033 120.25 64.9999 120.25Z" fill="#1C274C"/>
</svg>
